<?xml version="1.0" ?>
<svg enable-background="new 0 0 232 232" id="music" version="1.1" viewBox="0 0 232 232"
  xml:space="preserve" xmlns="http://www.w3.org/2000/svg"
><g><path d="M116,8C56.4491,8,8,56.4493,8,116c0,59.5509,48.4491,108,108,108c59.5507,0,108-48.4491,108-108   C224,56.4493,175.5507,8,116,8z M172,147.0957c0,9.1328-4.164,15.8088-11.8245,20.1448   c-7.5155,4.2515-15.4764,5.4588-23.7108,2.2515c-6.5076-2.5367-11.1172-6.9567-12.2032-14.2847   c-0.8672-5.8828,1.0628-10.9964,4.9456-15.336c5.9649-6.664,13.5232-9.3204,22.2184-9.0664   c2.4768,0.07,4.8556,0.6384,7.2152,1.3396c0.8476,0.252,1.32,0.2715,1.32-0.9648c-0.0468-15.9357-0.0428-31.8712-0.0076-47.8084   c0.004-1.0508-0.3124-1.2988-1.2776-1.2676c-7.9176,0.2636-15.7692,1.2596-23.578,2.5292   c-12.1172,1.9668-24.074,4.7228-35.8748,8.164c-3.0352,0.8828-3.0236,0.8671-3.082,4.0588   c-0.3324,17.7048-0.0704,35.412-0.1292,53.1172c-0.0155,5.0508,0.012,10.1031-0.1092,15.156   c-0.168,7.1231-3.328,12.7344-9.008,16.6916c-8.7772,6.1152-18.1484,7.504-28.164,3.1795c-2.582-1.1171-5-2.3163-6.8048-4.5447   c-4.2184-5.2033-4.8436-11.0548-2.7968-17.2873c1.4688-4.4923,4.34-7.9763,8.1056-10.672   c7.8164-5.5915,16.336-6.9391,25.4728-4.2127c1.0896,0.3244,1.3124,0.1816,1.3124-0.9864   c-0.0275-28.416-0.0195-56.832-0.0115-85.25c0-1.2949-0.004-2.586,0.1483-3.8789c0.07-0.6035,0.2968-0.8711,0.8477-1.092   c15.7575-6.2887,32.0935-10.2751,48.8007-12.7167c10.0508-1.4668,20.1836-2.1913,30.3124-2.8553   c2.1092-0.1407,4.2149-0.3243,6.336-0.2755c1.0509,0.0235,1.328,0.3908,1.3476,1.4472c0.3204,17.836,0.0936,35.672,0.1993,57.7072   V147.0957z" fill="none"/><path
  d="M116,0C52.0391,0,0,52.0373,0,116c0,63.9629,52.0391,116,116,116c63.9607,0,116-52.0371,116-116   C232,52.0373,179.9607,0,116,0z M116,224C56.4491,224,8,175.5509,8,116C8,56.4493,56.4491,8,116,8c59.5507,0,108,48.4493,108,108   C224,175.5509,175.5507,224,116,224z"
  fill="#8F89F5"/><path
  d="M171.8007,42.6757c-0.0196-1.0564-0.2967-1.4237-1.3476-1.4472c-2.1211-0.0488-4.2268,0.1348-6.336,0.2755   c-10.1288,0.664-20.2616,1.3885-30.3124,2.8553c-16.7072,2.4416-33.0432,6.428-48.8007,12.7167   c-0.5509,0.2209-0.7777,0.4885-0.8477,1.092c-0.1523,1.2929-0.1483,2.584-0.1483,3.8789c-0.008,28.418-0.016,56.834,0.0115,85.25   c0,1.168-0.2228,1.3108-1.3124,0.9864c-9.1368-2.7264-17.6564-1.3788-25.4728,4.2127c-3.7656,2.6957-6.6368,6.1797-8.1056,10.672   c-2.0468,6.2325-1.4216,12.084,2.7968,17.2873c1.8048,2.2284,4.2228,3.4276,6.8048,4.5447   c10.0156,4.3245,19.3868,2.9357,28.164-3.1795c5.68-3.9572,8.84-9.5685,9.008-16.6916c0.1212-5.0529,0.0937-10.1052,0.1092-15.156   c0.0588-17.7052-0.2032-35.4124,0.1292-53.1172c0.0584-3.1917,0.0468-3.176,3.082-4.0588   c11.8008-3.4412,23.7576-6.1972,35.8748-8.164c7.8088-1.2696,15.6604-2.2656,23.578-2.5292   c0.9652-0.0312,1.2816,0.2168,1.2776,1.2676c-0.0352,15.9372-0.0392,31.8727,0.0076,47.8084c0,1.2363-0.4724,1.2168-1.32,0.9648   c-2.3596-0.7012-4.7384-1.2696-7.2152-1.3396c-8.6952-0.254-16.2535,2.4024-22.2184,9.0664   c-3.8828,4.3396-5.8128,9.4532-4.9456,15.336c1.086,7.328,5.6956,11.748,12.2032,14.2847c8.2344,3.2073,16.1953,2,23.7108-2.2515   C167.836,162.9045,172,156.2285,172,147.0957v-46.7128C171.8943,78.3477,172.1211,60.5117,171.8007,42.6757z"
  fill="#B976DD"/></g></svg>