<svg viewBox="0 0 232 232" xmlns="http://www.w3.org/2000/svg"><path d="M116 8C56.45 8 8 56.45 8 116s48.45 108 108 108 108-48.45 108-108S175.55 8 116 8zm56 139.096c0 9.132-4.164 15.808-11.825 20.144-7.515 4.252-15.476 5.46-23.71 2.252-6.508-2.537-11.118-6.957-12.204-14.285-.867-5.883 1.063-10.996 4.946-15.336 5.965-6.664 13.523-9.32 22.219-9.066 2.476.07 4.855.638 7.215 1.34.847.251 1.32.271 1.32-.965a9291.22 9291.22 0 01-.008-47.809c.004-1.05-.312-1.299-1.277-1.267-7.918.263-15.77 1.26-23.578 2.529-12.118 1.967-24.075 4.723-35.875 8.164-3.035.883-3.024.867-3.082 4.059-.333 17.704-.07 35.412-.13 53.117-.015 5.05.013 10.103-.109 15.156-.168 7.123-3.328 12.734-9.008 16.691-8.777 6.116-18.148 7.504-28.164 3.18-2.582-1.117-5-2.316-6.804-4.545-4.219-5.203-4.844-11.055-2.797-17.287 1.469-4.492 4.34-7.976 8.105-10.672 7.817-5.592 16.336-6.94 25.473-4.213 1.09.325 1.313.182 1.313-.986-.028-28.416-.02-56.832-.012-85.25 0-1.295-.004-2.586.148-3.879.07-.604.297-.871.848-1.092 15.758-6.289 32.094-10.275 48.8-12.717 10.052-1.467 20.184-2.191 30.313-2.855 2.11-.14 4.215-.324 6.336-.276 1.051.024 1.328.391 1.348 1.448.32 17.836.093 35.672.199 57.707v46.713z" fill="none"/><path d="M116 0C52.04 0 0 52.037 0 116s52.04 116 116 116 116-52.037 116-116S179.96 0 116 0zm0 224C56.45 224 8 175.55 8 116S56.45 8 116 8s108 48.45 108 108-48.45 108-108 108z" fill="#8F89F5"/><path d="M171.8 42.676c-.019-1.057-.296-1.424-1.347-1.448-2.121-.048-4.227.135-6.336.276-10.129.664-20.261 1.389-30.312 2.855-16.708 2.442-33.044 6.428-48.801 12.717-.55.22-.778.488-.848 1.092-.152 1.293-.148 2.584-.148 3.879-.008 28.418-.016 56.834.011 85.25 0 1.168-.222 1.31-1.312.986-9.137-2.726-17.656-1.378-25.473 4.213-3.765 2.696-6.637 6.18-8.105 10.672-2.047 6.232-1.422 12.084 2.796 17.287 1.805 2.229 4.223 3.428 6.805 4.545 10.016 4.324 19.387 2.936 28.164-3.18 5.68-3.957 8.84-9.568 9.008-16.691.121-5.053.094-10.105.11-15.156.058-17.705-.204-35.413.129-53.117.058-3.192.046-3.176 3.082-4.06 11.8-3.44 23.757-6.196 35.874-8.163 7.81-1.27 15.66-2.266 23.578-2.53.966-.03 1.282.218 1.278 1.268a9291.22 9291.22 0 00.008 47.809c0 1.236-.473 1.216-1.32.964-2.36-.7-4.739-1.27-7.216-1.34-8.695-.253-16.253 2.403-22.218 9.067-3.883 4.34-5.813 9.453-4.946 15.336 1.086 7.328 5.696 11.748 12.204 14.285 8.234 3.207 16.195 2 23.71-2.251 7.661-4.337 11.825-11.013 11.825-20.145v-46.713c-.106-22.035.121-39.871-.2-57.707z" fill="#B976DD"/></svg>